<?xml version="1.0" standalone="no"?>
<!DOCTYPE svg PUBLIC "-//W3C//DTD SVG 20010904//EN"
 "http://www.w3.org/TR/2001/REC-SVG-20010904/DTD/svg10.dtd">
<svg version="1.0" xmlns="http://www.w3.org/2000/svg"
 width="700.000000pt" height="700.000000pt" viewBox="0 0 700.000000 700.000000"
 preserveAspectRatio="xMidYMid meet">
<metadata>
Created by potrace 1.14, written by Peter Selinger 2001-2017
</metadata>
<g transform="translate(0.000000,700.000000) scale(0.100000,-0.100000)"
fill="#000000" stroke="none">
<path d="M3401 6134 c-1789 -221 -3255 -405 -3257 -407 -2 -2 14 -145 36 -318
l40 -314 0 -367 c0 -320 2 -368 15 -368 13 0 15 -207 15 -1800 l0 -1800 34
-38 34 -37 3207 -3 c2853 -2 3209 0 3235 13 64 33 60 -104 60 1868 0 1790 0
1795 20 1800 20 5 20 12 18 344 l-3 338 -2967 3 -2968 2 0 40 c0 36 2 39 32
45 18 3 1342 167 2942 365 1600 197 2911 361 2913 364 3 2 -14 151 -36 329
-23 179 -41 330 -41 336 0 6 -16 11 -37 10 -21 -1 -1502 -183 -3292 -405z
m3121 36 c196 -274 197 -275 170 -283 -49 -13 -597 -76 -603 -69 -20 21 -399
555 -397 557 7 7 548 73 587 72 l45 -2 198 -275z m-1614 -200 c110 -151 198
-277 196 -279 -2 -2 -142 -21 -311 -42 l-308 -39 -22 28 c-52 62 -385 533
-381 537 8 8 541 73 585 72 l43 -2 198 -275z m-1614 -199 c108 -150 195 -276
192 -278 -3 -3 -143 -23 -313 -44 -286 -35 -308 -37 -319 -21 -6 9 -98 136
-203 282 -171 237 -188 265 -168 269 101 17 603 76 608 72 4 -3 95 -129 203
-280z m-1609 -207 c106 -148 192 -270 190 -272 -8 -8 -620 -80 -626 -74 -21
22 -400 555 -397 558 2 2 141 21 309 42 236 30 307 36 317 27 7 -7 100 -133
207 -281z m-1045 27 c42 -22 75 -68 84 -117 9 -47 -26 -120 -73 -151 -36 -24
-100 -30 -143 -14 -36 14 -77 60 -89 101 -39 130 102 245 221 181z m1227 -623
c-13 -24 -88 -161 -167 -305 l-142 -263 -314 0 c-173 0 -314 3 -314 7 0 3 73
140 163 305 l162 298 318 0 319 0 -25 -42z m1643 36 c0 -3 -73 -140 -162 -305
l-163 -299 -318 0 c-175 0 -316 3 -314 8 2 4 77 141 167 305 l162 297 314 0
c173 0 314 -3 314 -6z m1576 -96 c-30 -57 -104 -193 -164 -303 l-110 -200
-316 -3 c-174 -1 -316 0 -316 3 0 6 293 546 316 583 l14 22 316 0 316 0 -56
-102z m1672 80 c-8 -13 -83 -150 -168 -305 l-153 -283 -320 0 -319 0 14 23 c8
12 83 149 168 305 l153 282 320 0 319 0 -14 -22z m-198 -1358 c0 -20 -7 -20
-3025 -20 -3100 0 -3052 -1 -3018 33 3 4 1365 7 3025 7 3011 0 3018 0 3018
-20z m0 -910 c0 -20 -7 -20 -3025 -20 -3018 0 -3025 0 -3025 20 0 20 7 20
3025 20 3018 0 3025 0 3025 -20z m0 -905 c0 -13 -104 -15 -880 -15 l-880 0 0
-450 c0 -443 0 -450 -20 -450 -20 0 -20 7 -20 450 l0 450 -1225 0 -1225 0 0
-450 c0 -443 0 -450 -20 -450 -20 0 -20 7 -20 450 l0 450 -880 0 c-776 0 -880
2 -880 15 0 13 343 15 3025 15 2682 0 3025 -2 3025 -15z"/>
</g>
</svg>
